<?xml version="1.0" encoding="utf-8"?>
<!-- Generator: Adobe Illustrator 27.1.1, SVG Export Plug-In . SVG Version: 6.00 Build 0)  -->
<svg version="1.1" id="Layer_1" xmlns="http://www.w3.org/2000/svg" xmlns:xlink="http://www.w3.org/1999/xlink" x="0px" y="0px"
	 viewBox="0 0 22 22" style="enable-background:new 0 0 22 22;" xml:space="preserve" height="16px" width="16px">
<style type="text/css">
	.st0{fill:#E8D5C7FF;}
</style>
<g transform="translate(0.000000,1280.000000) scale(0.100000,-0.100000)">
	<path class="st0" d="M104.7,12759.9c-4.5-1-7.8-2.9-11.2-6.5c-3-3.2-4.6-6.3-5.5-10.4c-0.8-3.7-0.5-8.2,0.8-11.9
		c1.7-5,4.9-8.7,11.1-12.8c3.3-2.2,3.3-2.2,3.6-3.3c0.2-0.8,0.3-2.7,0.3-6.1c0-4.3,0-5.1-0.4-6.1c-0.8-2.2-0.8-2.2-7.2-2.2h-5.5
		l-1.9,1.7c-2.7,2.4-3.3,2.7-5.8,2.7c-1.9,0-2.2-0.1-3.3-0.7c-2.6-1.4-3.8-3.9-3.6-7.3c0.1-2.4,0.9-4.1,2.7-5.9
		c1.4-1.4,2.3-1.8,4.3-1.8c1.6,0,2.8,0.6,4,1.8c1.3,1.3,3.1,2.5,4.8,2.9c3.1,0.8,8.7,0.3,10.9-1.1l0.8-0.5l0.1-14.2
		c0.3-33.3,0.3-45.2,0.1-46.4c-0.7-3.8-3.8-7-8.3-8.5c-2.3-0.8-6.4-1-9.5-0.4c-5.5,1-11.1,3.6-17.1,8.2c-1.4,1.1-3.3,2.6-4.2,3.5
		l-1.6,1.5l1.9,1.7c2,1.9,2.8,3,2.8,3.8c0,0.5-0.4,0.8-2.3,2.1c-6.6,4.5-13,9.8-15.1,12.4c-0.6,0.8-1.3,1.5-1.5,1.5
		c-0.7,0-2-5.5-2.3-10.4c-0.5-7.6,0.7-15.6,3-20c0.6-1.2,0.8-1.4,1.5-1.4c0.6-0.1,1,0.1,1.9,0.9c1.5,1.2,2,1.5,2.9,1.5
		c0.5,0,0.8-0.3,1.9-1.8c4.3-6.2,10.3-12.2,15.7-15.8c4-2.7,7.5-4.3,16.1-7.2c9.6-3.2,11-3.9,15-6.6c2.3-1.6,3.5-3,4.7-5.4
		c0.4-0.9,0.9-1.6,1.1-1.6c0.1,0,0.6,0.6,1,1.3c1.3,2.4,2.9,4.1,5.7,6c3.1,2.1,3.5,2.3,12.2,5.6c10.3,3.9,12.4,4.8,16.4,7.3
		c5.9,3.6,11.7,9.2,16.7,15.7c1.1,1.5,2.3,2.8,2.5,2.9c0.6,0.3,1.7-0.3,3-1.5c0.7-0.6,1.2-1,1.4-0.9c0.2,0.1,0.5,0.1,0.7,0.1
		c0.5,0,1.8,2.6,2.5,5.1c1.3,4.3,2,12.5,1.4,17.5c-0.3,2.9-1.1,6.2-2,8c-0.9,2.1-1.1,2.1-2.1,0.1c-1.9-3.7-4.2-5.9-10.2-9.8
		c-5.7-3.8-7.2-4.9-7.2-5.4c0-0.3,1-1.4,2.5-2.9l2.5-2.5l-1.7-1.6c-3.3-3.1-8.5-6.7-12.5-8.7c-7.2-3.6-14.9-4.4-19.9-2
		c-4.2,2-6.7,6.2-7.1,12.1c-0.1,2-0.4,26.4-0.4,44.9c0,7.9,0.1,10.2,0.8,11.6c0.5,1.1,2.1,1.4,7.5,1.4c4.7,0,4.7,0,5.7-0.6
		c0.6-0.3,1.8-1.3,2.7-2.1c1.3-1.2,1.9-1.6,2.8-1.8c2.3-0.5,4.2,0.1,6.1,2.1c1.4,1.5,2,2.6,2.4,4.5c0.5,2.6-0.3,5.3-2.1,7.1
		c-1.4,1.4-2.7,1.9-4.9,1.9c-2.2,0-2.9-0.3-5-2.4c-0.9-0.8-1.9-1.7-2.4-1.9c-1.2-0.6-5-0.9-8.2-0.6c-3.4,0.3-4.2,0.6-4.6,1.8
		c-0.8,2-1.3,8.4-0.9,11.5c0.4,3,0.5,3.2,3.6,4.6c2.3,1.1,2.9,1.5,4.6,3.1c2.5,2.4,3.9,4.3,5.3,7.1c1.9,4,2.6,7.9,2.2,12.2
		c-0.9,9.2-7.1,16.6-16.1,18.9C112.3,12760.2,107.1,12760.4,104.7,12759.9z M113.2,12750.1c3.2-0.7,6.1-2.7,7.3-5.1
		c1.5-2.9,1.8-7.5,0.7-10.7c-1.5-4.4-4.5-7.4-8.5-8.4c-1.7-0.4-5.2-0.3-6.8,0.1c-3.6,1-6.8,3.6-8.1,6.3c-1,2.1-1.3,3.7-1.3,6.1
		c0,5,2.6,8.9,7.4,10.8C106.8,12750.3,110.4,12750.7,113.2,12750.1z"/>
</g>
</svg>
